<svg width="24" height="24" viewBox="0 0 24 24" fill="none" xmlns="http://www.w3.org/2000/svg">
<g clip-path="url(#clip0_11133_2133)">
<path d="M19.371 4.63222C19.242 4.36922 18.978 4.19922 18.685 4.19922H5.314C5.019 4.19922 4.753 4.36922 4.625 4.63222C4.494 4.89722 4.53 5.21222 4.717 5.43922L10.143 11.9382L10.147 20.2352C10.147 20.5282 10.317 20.7982 10.579 20.9242C10.684 20.9762 10.795 21.0002 10.91 21.0002C11.082 21.0002 11.25 20.9432 11.385 20.8342L13.557 18.9642C13.743 18.8202 13.848 18.5992 13.848 18.3652V11.9382L19.286 5.43922C19.466 5.21222 19.504 4.89722 19.371 4.63222Z" fill="white"/>
</g>
<defs>
<clipPath id="clip0_11133_2133">
<rect width="20" height="20" fill="white" transform="translate(2 2)"/>
</clipPath>
</defs>
</svg>
