<svg width="24" height="24" viewBox="0 0 24 24" fill="none" xmlns="http://www.w3.org/2000/svg">
<g clip-path="url(#clip0_11133_2100)">
<path d="M11.097 10.628C11.097 10.887 10.885 11.099 10.626 11.099H4.47201C4.21301 11.099 4.00101 10.887 4.00101 10.628V4.47002C4.00101 4.21102 4.21301 3.99902 4.47201 3.99902H10.625C10.884 3.99902 11.096 4.21102 11.096 4.47002V10.628H11.097Z" fill="white"/>
<path d="M20.001 10.628C20.001 10.887 19.789 11.099 19.529 11.099H13.371C13.111 11.099 12.899 10.887 12.899 10.628V4.47002C12.899 4.21102 13.111 3.99902 13.371 3.99902H19.529C19.789 3.99902 20.001 4.21102 20.001 4.47002V10.628Z" fill="white"/>
<path d="M11.097 19.5289C11.097 19.7889 10.885 20.0009 10.626 20.0009H4.47201C4.21301 20.0009 4.00101 19.7889 4.00101 19.5289V13.3729C4.00101 13.1129 4.21301 12.9009 4.47201 12.9009H10.625C10.884 12.9009 11.096 13.1129 11.096 13.3729V19.5289H11.097Z" fill="white"/>
<path d="M20.001 19.5289C20.001 19.7889 19.789 20.0009 19.529 20.0009H13.371C13.111 20.0009 12.899 19.7889 12.899 19.5289V13.3729C12.899 13.1129 13.111 12.9009 13.371 12.9009H19.529C19.789 12.9009 20.001 13.1129 20.001 13.3729V19.5289Z" fill="white"/>
</g>
<defs>
<clipPath id="clip0_11133_2100">
<rect width="20" height="20" fill="white" transform="translate(2 2)"/>
</clipPath>
</defs>
</svg>
