<svg width="24" height="24" viewBox="0 0 24 24" fill="none" xmlns="http://www.w3.org/2000/svg">
<g clip-path="url(#clip0_11133_2148)">
<path d="M18.248 4.25684C18.676 4.25684 19.041 4.41384 19.344 4.72484C19.645 5.03484 19.801 5.41284 19.801 5.85684V18.7458C19.801 19.1868 19.645 19.5678 19.344 19.8758C19.041 20.1888 18.676 20.3438 18.248 20.3438H5.75001C5.32001 20.3438 4.95501 20.1888 4.65201 19.8758C4.34901 19.5678 4.19901 19.1878 4.19901 18.7458V5.85584C4.19901 5.41284 4.34901 5.03384 4.65201 4.72384C4.95501 4.41384 5.32001 4.25684 5.75001 4.25684H18.248ZM10.965 18.2108V8.51984H6.26201V18.2108H10.965ZM17.729 18.2108V8.51984H13.031V18.2108H17.729Z" fill="white"/>
</g>
<defs>
<clipPath id="clip0_11133_2148">
<rect width="20" height="20" fill="white" transform="translate(2 2)"/>
</clipPath>
</defs>
</svg>
