<svg width="20" height="20" viewBox="0 0 20 20" fill="none" xmlns="http://www.w3.org/2000/svg">
<path d="M16.6894 3.3212C16.2753 2.90709 15.6064 2.90709 15.1923 3.3212L10 8.50284L4.80774 3.31058C4.39363 2.89647 3.72469 2.89647 3.31058 3.31058C2.89647 3.72469 2.89647 4.39363 3.31058 4.80774L8.50284 10L3.31058 15.1923C2.89647 15.6064 2.89647 16.2753 3.31058 16.6894C3.72469 17.1035 4.39363 17.1035 4.80774 16.6894L10 11.4972L15.1923 16.6894C15.6064 17.1035 16.2753 17.1035 16.6894 16.6894C17.1035 16.2753 17.1035 15.6064 16.6894 15.1923L11.4972 10L16.6894 4.80774C17.0929 4.40425 17.0929 3.72469 16.6894 3.3212Z" fill="#D4D4D4"/>
</svg>
