<svg width="20" height="21" viewBox="0 0 20 21" fill="none" xmlns="http://www.w3.org/2000/svg">
<path d="M5.04358 8.38113C5.10214 8.16252 5.30024 8.0105 5.52655 8.0105H17.3484C17.6772 8.0105 17.9165 8.32231 17.8314 8.63987L15.8571 16.0105H3L5.04358 8.38113Z" fill="#99C3FF"/>
<path d="M10.7929 4.0105C10.9255 4.0105 11.0527 4.06318 11.1464 4.15694L12.8536 5.86405C12.9473 5.95782 13.0745 6.0105 13.2071 6.0105H15.5C15.7761 6.0105 16 6.23436 16 6.5105V8.0105H5.52655C5.30024 8.0105 5.10214 8.16252 5.04358 8.38113L3 16.0105V4.5105C3 4.23436 3.22386 4.0105 3.5 4.0105H10.7929Z" fill="#4471E5"/>
</svg>
