<svg width="20" height="20" viewBox="0 0 20 20" fill="none" xmlns="http://www.w3.org/2000/svg">
<path d="M2.494 4.00092H17.507C17.6296 3.99323 17.7502 4.03434 17.8426 4.11527C17.9349 4.19621 17.9915 4.3104 18 4.43292V5.56891C17.9915 5.69143 17.9349 5.80562 17.8426 5.88656C17.7502 5.96749 17.6296 6.0086 17.507 6.00092H2.494C2.37133 6.00861 2.25059 5.96753 2.15806 5.88662C2.06554 5.80571 2.00873 5.69152 2 5.56891V4.43292C2.00873 4.31031 2.06554 4.19612 2.15806 4.11521C2.25059 4.0343 2.37133 3.99322 2.494 4.00092Z" fill="#515151"/>
<path d="M2.494 9.00275H17.507C17.6296 8.99506 17.7502 9.03617 17.8426 9.11711C17.9349 9.19804 17.9915 9.31223 18 9.43475V10.5707C17.9915 10.6933 17.9349 10.8075 17.8426 10.8884C17.7502 10.9693 17.6296 11.0104 17.507 11.0027H2.494C2.37133 11.0104 2.25059 10.9694 2.15806 10.8884C2.06554 10.8075 2.00873 10.6933 2 10.5707V9.43475C2.00873 9.31214 2.06554 9.19795 2.15806 9.11704C2.25059 9.03613 2.37133 8.99505 2.494 9.00275Z" fill="#515151"/>
<path d="M2.494 14.0046H17.507C17.6296 13.9969 17.7502 14.038 17.8426 14.1189C17.9349 14.1999 17.9915 14.3141 18 14.4366V15.5726C17.9915 15.6951 17.9349 15.8093 17.8426 15.8902C17.7502 15.9712 17.6296 16.0123 17.507 16.0046H2.494C2.37133 16.0123 2.25059 15.9712 2.15806 15.8903C2.06554 15.8094 2.00873 15.6952 2 15.5726V14.4366C2.00873 14.314 2.06554 14.1998 2.15806 14.1189C2.25059 14.038 2.37133 13.9969 2.494 14.0046Z" fill="#515151"/>
</svg>
