<svg width="20" height="20" viewBox="0 0 20 20" fill="none" xmlns="http://www.w3.org/2000/svg">
<path d="M16.363 14.459C16.541 14.662 16.541 14.854 16.363 15.031L15.023 16.367C14.845 16.545 14.66 16.545 14.457 16.367L9.99999 11.874L5.54299 16.367C5.33799 16.545 5.14899 16.545 4.97299 16.367L3.63599 15.031C3.45499 14.853 3.45499 14.662 3.63599 14.459L8.13099 10L3.63599 5.54101C3.45499 5.34101 3.45499 5.14701 3.63599 4.96901L4.97299 3.63301C5.14999 3.45501 5.33899 3.45501 5.54299 3.63301L9.99999 8.12601L14.457 3.63301C14.66 3.45501 14.846 3.45501 15.023 3.63301L16.367 4.96901C16.545 5.14701 16.545 5.34101 16.367 5.54101L11.867 10L16.363 14.459Z" fill="#D41E36"/>
</svg>
