<svg width="25" height="24" viewBox="0 0 25 24" fill="none" xmlns="http://www.w3.org/2000/svg">
<path d="M15.271 5.4999C12.8028 3.01485 8.80015 3.01485 6.332 5.4999C3.86386 7.98495 3.86386 12.0151 6.332 14.5001C8.51846 16.7015 11.9095 16.95 14.3696 15.251L17.4467 18.7166C17.9698 19.3081 18.8793 19.3324 19.4346 18.7733L19.5151 18.6923C20.0704 18.1331 20.0463 17.2174 19.4588 16.6907L16.0168 13.5925C17.7069 11.1129 17.4574 7.70133 15.271 5.4999ZM13.7364 12.955C12.116 14.5865 9.48694 14.5865 7.86655 12.955C6.24616 11.3236 6.24616 8.67644 7.86655 7.04495C9.48694 5.41346 12.116 5.41346 13.7364 7.04495C15.3595 8.67914 15.3568 11.3236 13.7364 12.955Z" fill="white"/>
</svg>
