<svg width="25" height="24" viewBox="0 0 25 24" fill="none" xmlns="http://www.w3.org/2000/svg">
<path fill-rule="evenodd" clip-rule="evenodd" d="M9.07465 15.5624C8.95749 15.4453 8.95749 15.2553 9.07465 15.1382L16.0006 8.21213C16.1178 8.09498 16.3077 8.09498 16.4249 8.21213L16.6503 8.43755C16.7675 8.55471 16.7675 8.74466 16.6503 8.86181L9.72433 15.7879C9.60717 15.905 9.41722 15.905 9.30006 15.7879L9.07465 15.5624Z" fill="#777777"/>
<path fill-rule="evenodd" clip-rule="evenodd" d="M16.6502 15.5624C16.7673 15.4453 16.7673 15.2553 16.6502 15.1382L9.72418 8.21213C9.60702 8.09498 9.41707 8.09498 9.29992 8.21213L9.0745 8.43755C8.95734 8.55471 8.95734 8.74466 9.0745 8.86181L16.0005 15.7879C16.1176 15.905 16.3076 15.905 16.4248 15.7879L16.6502 15.5624Z" fill="#777777"/>
</svg>
