<svg width="24" height="24" viewBox="0 0 24 24" fill="none" xmlns="http://www.w3.org/2000/svg">
<path d="M17.1437 10.7139C17.6143 10.7199 17.994 11.0996 18 11.5702V12.4281C17.994 12.8987 17.6143 13.2792 17.1437 13.2861H13.2823V17.1421C13.2763 17.6126 12.8966 17.9931 12.426 18H11.568C11.0974 17.9931 10.7177 17.6135 10.7117 17.1421V13.2852H6.858C6.38743 13.2783 6.00771 12.8987 6 12.4281V11.5702C6.00686 11.0996 6.38657 10.7199 6.858 10.7139H10.7151V6.85708C10.7211 6.38569 11.1009 6.006 11.5714 6H12.4294C12.9 6.006 13.2806 6.38569 13.2857 6.85622V10.7131L17.1437 10.7139Z" fill="white"/>
</svg>
