<svg width="24" height="24" viewBox="0 0 24 24" fill="none" xmlns="http://www.w3.org/2000/svg">
<g clip-path="url(#clip0_11133_2139)">
<path d="M11.913 4.19922C14.006 4.19922 15.801 4.92422 17.289 6.37122L18.525 5.13222C18.769 4.88622 19.056 4.83122 19.386 4.96522C19.712 5.09822 19.882 5.34422 19.882 5.69422V10.1232C19.882 10.3362 19.806 10.5282 19.652 10.6812C19.492 10.8342 19.31 10.9112 19.082 10.9112H14.654C14.304 10.9112 14.054 10.7512 13.933 10.4162C13.806 10.0832 13.853 9.79822 14.097 9.55222L15.533 8.13622C14.521 7.20822 13.32 6.73822 11.942 6.72422C10.499 6.69422 9.23501 7.20822 8.18601 8.24722C7.12501 9.28222 6.60201 10.5502 6.63101 12.0342C6.64901 13.4782 7.16201 14.7202 8.18601 15.7422C9.20201 16.7722 10.444 17.2862 11.913 17.2862C13.227 17.2862 14.399 16.8432 15.403 15.9662C15.569 15.8182 15.739 15.8332 15.907 16.0012L17.167 17.2512C17.353 17.4492 17.337 17.6172 17.136 17.7922C15.648 19.1312 13.906 19.8022 11.914 19.8022C9.75601 19.8022 7.91401 19.0412 6.39301 17.5252C4.87401 16.0002 4.11401 14.1572 4.11401 12.0022C4.11401 9.84322 4.88201 8.00022 6.40301 6.47922C7.94401 4.96122 9.77201 4.19922 11.913 4.19922Z" fill="white"/>
</g>
<defs>
<clipPath id="clip0_11133_2139">
<rect width="20" height="20" fill="white" transform="translate(2 2)"/>
</clipPath>
</defs>
</svg>
