<svg width="20" height="20" viewBox="0 0 20 20" fill="none" xmlns="http://www.w3.org/2000/svg">
<path d="M10 2C5.581 2 2 5.582 2 10C2 14.418 5.581 18 10 18C14.418 18 18 14.418 18 10C18 5.582 14.418 2 10 2ZM10.837 14.656C10.619 14.883 10.355 15 10.063 15C9.719 15 9.43 14.883 9.194 14.656C8.952 14.427 8.831 14.158 8.831 13.844C8.831 13.522 8.947 13.245 9.185 13.023C9.424 12.802 9.718 12.689 10.064 12.689C10.357 12.689 10.621 12.802 10.838 13.027C11.057 13.265 11.166 13.527 11.166 13.844C11.165 14.158 11.056 14.428 10.837 14.656ZM11.077 10.939C11.077 11.142 10.969 11.31 10.751 11.416C10.545 11.537 10.314 11.591 10.075 11.591C9.401 11.591 9.056 11.375 9.056 10.94C9.056 10.348 8.836 6.508 8.836 5.911C8.836 5.636 8.954 5.415 9.185 5.253C9.418 5.094 9.72 5 10.075 5C10.391 5 10.645 5.094 10.855 5.252C11.072 5.414 11.17 5.635 11.17 5.91C11.171 6.508 11.077 10.348 11.077 10.939Z" fill="#D41E36"/>
<path d="M10.0749 5C9.71991 5 9.41791 5.094 9.18591 5.252C8.95491 5.414 8.83691 5.635 8.83691 5.91C8.83691 6.508 9.05691 10.348 9.05691 10.939C9.05691 11.375 9.40191 11.59 10.0759 11.59C10.3149 11.59 10.5459 11.536 10.7519 11.415C10.9699 11.31 11.0779 11.142 11.0779 10.938C11.0779 10.346 11.1719 6.506 11.1719 5.909C11.1719 5.634 11.0729 5.413 10.8569 5.251C10.6459 5.094 10.3919 5 10.0749 5Z" fill="white"/>
<path d="M10.0631 12.689C9.71708 12.689 9.42308 12.802 9.18408 13.023C8.94708 13.246 8.83008 13.522 8.83008 13.844C8.83008 14.157 8.95108 14.427 9.19308 14.656C9.43008 14.883 9.71908 15 10.0631 15C10.3561 15 10.6201 14.883 10.8371 14.656C11.0561 14.427 11.1651 14.158 11.1651 13.844C11.1651 13.527 11.0561 13.265 10.8371 13.027C10.6191 12.803 10.3551 12.689 10.0631 12.689Z" fill="white"/>
</svg>
